<svg width="20" height="20" viewBox="0 0 20 20" fill="none" xmlns="http://www.w3.org/2000/svg">
<path fill-rule="evenodd" clip-rule="evenodd" d="M8.38591 0.11993C5.76347 0.534656 3.23932 2.14234 1.70958 4.37197C0.967232 5.45407 0.342024 7.04771 0.118104 8.42867C-0.276214 10.8612 0.332553 13.6114 1.70958 15.6185C3.26425 17.8845 5.78026 19.4685 8.47526 19.8779C10.6575 20.2095 12.6674 19.8677 14.6611 18.8258C17.5181 17.3327 19.4438 14.5684 19.9094 11.2915C20.4249 7.66404 18.7071 3.83012 15.6146 1.70624C13.5958 0.319828 10.8841 -0.275308 8.38591 0.11993ZM11.4503 1.54622C14.7774 2.12669 17.4025 4.56284 18.325 7.92598C18.5949 8.90991 18.5949 11.0805 18.325 12.0645C17.4497 15.2555 15.0873 17.5755 11.9031 18.3711C10.9661 18.6052 8.92641 18.5851 7.96702 18.3323C5.81145 17.7643 3.96281 16.4505 2.81051 14.668C1.01593 11.8918 0.967231 8.31513 2.68604 5.52076C4.52449 2.53194 8.01839 0.947416 11.4503 1.54622ZM6.37545 6.49996C5.97774 6.67474 5.74997 7.03797 5.74997 7.49748C5.74997 7.87305 5.79161 7.97729 6.04207 8.22788C6.29351 8.47945 6.396 8.52013 6.77754 8.52013C7.15908 8.52013 7.26157 8.47945 7.51301 8.22788C7.76445 7.97631 7.80511 7.87377 7.80511 7.49203C7.80511 7.11539 7.76338 7.00677 7.52874 6.77191C7.23369 6.47671 6.70954 6.35316 6.37545 6.49996ZM12.8089 6.49996C12.4112 6.67474 12.1834 7.03797 12.1834 7.49748C12.1834 7.87305 12.2251 7.97729 12.4755 8.22788C12.727 8.47945 12.8295 8.52013 13.211 8.52013C13.5925 8.52013 13.695 8.47945 13.9465 8.22788C14.1979 7.97631 14.2386 7.87377 14.2386 7.49203C14.2386 7.11539 14.1968 7.00677 13.9622 6.77191C13.6672 6.47671 13.143 6.35316 12.8089 6.49996ZM5.92466 11.6451C5.597 11.9728 5.63998 12.3006 6.09095 12.9135C7.3092 14.5692 9.18017 15.3069 11.0451 14.867C12.1763 14.6002 13.1444 13.9371 13.8976 12.9135C14.3486 12.3006 14.3915 11.9728 14.0639 11.6451C13.743 11.324 13.3427 11.3495 13.0444 11.7101C12.9149 11.8666 12.5428 12.2662 12.2177 12.5979C11.691 13.1353 11.5555 13.2227 10.9781 13.3983C10.4681 13.5533 10.2 13.5845 9.72183 13.5443C8.65799 13.4551 8.13125 13.106 6.94418 11.7038C6.64476 11.35 6.24267 11.3268 5.92466 11.6451Z" fill="#A6A9B8"/>
</svg>
