<svg width="18" height="17" viewBox="0 0 18 17" fill="none" xmlns="http://www.w3.org/2000/svg">
<path d="M4.37919 13.8333L0.666687 16.75V1.33333C0.666687 1.11232 0.754484 0.900358 0.910765 0.744078C1.06704 0.587797 1.27901 0.5 1.50002 0.5H16.5C16.721 0.5 16.933 0.587797 17.0893 0.744078C17.2456 0.900358 17.3334 1.11232 17.3334 1.33333V13C17.3334 13.221 17.2456 13.433 17.0893 13.5893C16.933 13.7455 16.721 13.8333 16.5 13.8333H4.37919ZM4.83335 6.33333V8H6.50002V6.33333H4.83335ZM8.16669 6.33333V8H9.83335V6.33333H8.16669ZM11.5 6.33333V8H13.1667V6.33333H11.5Z" fill="white"/>
</svg>
