<svg width="12" height="10" viewBox="0 0 12 10" fill="none" xmlns="http://www.w3.org/2000/svg">
<path d="M2.43648 0.5H9.56348C9.64237 0.499989 9.72015 0.518648 9.79045 0.554451C9.86075 0.590254 9.92159 0.642185 9.96798 0.706L11.8795 3.334C11.9135 3.38076 11.9302 3.43785 11.9268 3.49556C11.9234 3.55326 11.9002 3.60802 11.861 3.6505L6.18348 9.801C6.16007 9.8263 6.13169 9.84648 6.10011 9.86028C6.06853 9.87409 6.03444 9.88121 5.99998 9.88121C5.96551 9.88121 5.93142 9.87409 5.89984 9.86028C5.86827 9.84648 5.83988 9.8263 5.81648 9.801L0.138976 3.651C0.0996517 3.60848 0.0763088 3.55363 0.0729346 3.49581C0.0695605 3.438 0.0863644 3.3808 0.120476 3.334L2.03198 0.706C2.07837 0.642185 2.1392 0.590254 2.2095 0.554451C2.2798 0.518648 2.35758 0.499989 2.43648 0.5Z" fill="#DD7E06"/>
</svg>
