<svg width="18" height="16" viewBox="0 0 18 16" fill="none" xmlns="http://www.w3.org/2000/svg">
<path d="M16.5 0.5C16.721 0.5 16.933 0.587797 17.0893 0.744078C17.2456 0.900358 17.3334 1.11232 17.3334 1.33333V5.91667C16.7808 5.91667 16.2509 6.13616 15.8602 6.52686C15.4695 6.91756 15.25 7.44747 15.25 8C15.25 8.55253 15.4695 9.08244 15.8602 9.47314C16.2509 9.86384 16.7808 10.0833 17.3334 10.0833V14.6667C17.3334 14.8877 17.2456 15.0996 17.0893 15.2559C16.933 15.4122 16.721 15.5 16.5 15.5H1.50002C1.27901 15.5 1.06704 15.4122 0.910765 15.2559C0.754484 15.0996 0.666687 14.8877 0.666687 14.6667V10.0833C1.21922 10.0833 1.74913 9.86384 2.13983 9.47314C2.53053 9.08244 2.75002 8.55253 2.75002 8C2.75002 7.44747 2.53053 6.91756 2.13983 6.52686C1.74913 6.13616 1.21922 5.91667 0.666687 5.91667V1.33333C0.666687 1.11232 0.754484 0.900358 0.910765 0.744078C1.06704 0.587797 1.27901 0.5 1.50002 0.5H16.5ZM12.3334 5.5H5.66669V10.5H12.3334V5.5Z" fill="white"/>
</svg>
