<svg width="19" height="21" viewBox="0 0 19 21" fill="none" xmlns="http://www.w3.org/2000/svg">
<path d="M9.83329 13.0643V14.9802C9.00364 14.6868 8.11571 14.5969 7.24408 14.7178C6.37245 14.8387 5.54256 15.1671 4.82411 15.6752C4.10565 16.1833 3.51961 16.8564 3.11519 17.638C2.71078 18.4195 2.49979 19.2867 2.49996 20.1667L0.666626 20.1657C0.666342 19.0464 0.922304 17.9418 1.4149 16.9367C1.9075 15.9315 2.62365 15.0525 3.50849 14.3669C4.39333 13.6814 5.42337 13.2074 6.51968 12.9815C7.616 12.7555 8.74948 12.7836 9.83329 13.0634V13.0643ZM7.99996 11.9167C4.96121 11.9167 2.49996 9.45541 2.49996 6.41666C2.49996 3.37791 4.96121 0.916656 7.99996 0.916656C11.0387 0.916656 13.5 3.37791 13.5 6.41666C13.5 9.45541 11.0387 11.9167 7.99996 11.9167ZM7.99996 10.0833C10.0258 10.0833 11.6666 8.44249 11.6666 6.41666C11.6666 4.39082 10.0258 2.74999 7.99996 2.74999C5.97413 2.74999 4.33329 4.39082 4.33329 6.41666C4.33329 8.44249 5.97413 10.0833 7.99996 10.0833ZM13.5 15.5833V12.8333H15.3333V15.5833H18.0833V17.4167H15.3333V20.1667H13.5V17.4167H10.75V15.5833H13.5Z" fill="#E0E1EB"/>
</svg>
